<svg width="107" height="32" viewBox="0 0 107 32" fill="none" xmlns="http://www.w3.org/2000/svg">
<path d="M2.27557 31V4.81818H19.6108V9.3821H7.81108V15.6207H18.4602V20.1847H7.81108V31H2.27557ZM25.3055 31L19.9617 11.3636H25.4717L28.5143 24.5568H28.6933L31.8637 11.3636H37.2714L40.493 24.4801H40.6592L43.6506 11.3636H49.1478L43.8168 31H38.0512L34.6762 18.6506H34.4333L31.0583 31H25.3055ZM50.253 31V11.3636H55.699V31H50.253ZM52.9888 8.83239C52.1791 8.83239 51.4845 8.56392 50.905 8.02699C50.334 7.48153 50.0484 6.82954 50.0484 6.07102C50.0484 5.32102 50.334 4.67756 50.905 4.14062C51.4845 3.59517 52.1791 3.32244 52.9888 3.32244C53.7984 3.32244 54.4888 3.59517 55.0598 4.14062C55.6393 4.67756 55.9291 5.32102 55.9291 6.07102C55.9291 6.82954 55.6393 7.48153 55.0598 8.02699C54.4888 8.56392 53.7984 8.83239 52.9888 8.83239ZM58.1593 31V27.7528L67.7729 15.8509V15.7102H58.4917V11.3636H74.3312V14.9048L65.3056 26.5128V26.6534H74.6636V31H58.1593ZM76.9257 31V27.7528L86.5394 15.8509V15.7102H77.2581V11.3636H93.0976V14.9048L84.072 26.5128V26.6534H93.43V31H76.9257Z" fill="#222222"/>
<path d="M100.019 31.397C99.0114 31.397 98.1461 31.0407 97.4233 30.3281C96.7107 29.6054 96.3544 28.7401 96.3544 27.7322C96.3544 26.7346 96.7107 25.8795 97.4233 25.1669C98.1461 24.4543 99.0114 24.098 100.019 24.098C100.996 24.098 101.852 24.4543 102.585 25.1669C103.317 25.8795 103.684 26.7346 103.684 27.7322C103.684 28.4041 103.511 29.02 103.165 29.5799C102.829 30.1296 102.386 30.5724 101.836 30.9084C101.287 31.2341 100.681 31.397 100.019 31.397Z" fill="#FEBC30"/>
</svg>
